# xmcd
#
# Track frame offsets:
#	150
#	15966
#	29423
#	41790
#	53483
#	66861
#	81619
#	93833
#	105324
#	119656
#	134563
#	148224
#	160907
#	173514
#	185848
#	197545
#	211590
#	222697
#	237282
#	249847
#	262310
#	275093
#	288702
#	302853
#	317712
#
# Disc length: 4413 seconds
#
# Revision: 1
# Processed by: cddbd v1.5PL3 Copyright (c) Steve Scherf et al.
# Submitted via: EasyCDDAExtractor 6.5.2.1
#
DISCID=7f113b19
DTITLE=Saunders King - Cool Blues, Jumps and Shuffles
DYEAR=1900
DGENRE=Blues
TTITLE0=S K Blues Pt1
TTITLE1=Swingin
TTITLE2=Write Me A Letter Blues
TTITLE3=Lazy Woman Blues
TTITLE4=I'd Climb The Highest Mountain
TTITLE5=S K Jumps Pt 1
TTITLE6=Stay Gone Blues
TTITLE7=2:00 AM Hop
TTITLE8=Empty Bedroom Blues
TTITLE9=Imagination
TTITLE10=S K Jumps Pt 2
TTITLE11=Something's Worrying Me
TTITLE12=Read The Good Book
TTITLE13=Danny Boy
TTITLE14=Going Mad
TTITLE15=My Close Friend
TTITLE16=Quit Hanging Around Me
TTITLE17=Long Long Time
TTITLE18=Summertime
TTITLE19=Get Yourself Another Fool
TTITLE20=When I Get Up This Morning
TTITLE21=Auf Wiedersehn, My Dear
TTITLE22=Empty Bedroom Blues
TTITLE23=What's your Story Morning Glory
TTITLE24=S K Blues Pt 2
EXTD=
EXTT0=
EXTT1=
EXTT2=
EXTT3=
EXTT4=
EXTT5=
EXTT6=
EXTT7=
EXTT8=
EXTT9=
EXTT10=
EXTT11=
EXTT12=
EXTT13=
EXTT14=
EXTT15=
EXTT16=
EXTT17=
EXTT18=
EXTT19=
EXTT20=
EXTT21=
EXTT22=
EXTT23=
EXTT24=
PLAYORDER=
